<?xml version="1.0" encoding="UTF-8"?><svg id="_レイヤー_2" xmlns="http://www.w3.org/2000/svg" viewBox="0 0 106.47 69.8"><defs><style>.cls-1{fill:#251e1c;}</style></defs><g id="_レイアウト"><path class="cls-1" d="M10.28,46.99c-.56,2.42-1.62,4.86-3.18,7.31-1.56,2.45-3.32,4.46-5.28,6.05-.51,.37-.91,.56-1.19,.56-.42,0-.63-.23-.63-.7,0-.37,.16-.75,.49-1.12,3.45-3.87,5.36-8.62,5.73-14.26,.05-.84,.37-1.52,.98-2.03,.61-.51,1.33-.77,2.17-.77,1.16,0,2.28,.47,3.36,1.4,.33,.28,.49,.56,.49,.84,0,.23-.08,.41-.24,.52-.16,.12-.38,.15-.66,.1-.56-.05-.98,.08-1.26,.38-.28,.3-.54,.87-.77,1.71Zm65.43-15.48c-.25-.16-.37-.43-.36-.83,.02-.46,.3-.8,.84-1.01,.53-.22,1.1-.35,1.7-.39,.11-.02,.17-.08,.17-.19v-.6c0-.29-.07-.52-.23-.69-.15-.17-.34-.25-.58-.25-.26,0-.47,.08-.62,.23-.15,.15-.23,.35-.23,.59,0,.17-.04,.29-.12,.37s-.18,.12-.3,.12c-.1,0-.2-.04-.28-.12s-.12-.19-.12-.34c0-.2,.08-.38,.24-.56,.16-.18,.38-.32,.64-.43,.27-.11,.54-.17,.82-.17,.46,0,.84,.11,1.14,.34,.3,.22,.45,.55,.45,.98v2.14c0,.49,.1,.73,.3,.73,.02,0,.08-.02,.17-.07,.09-.04,.14-.07,.15-.07,.04,0,.07,.01,.09,.04s.04,.06,.04,.09c0,.1-.08,.17-.23,.23s-.31,.08-.48,.08c-.35,0-.59-.12-.72-.36-.03-.05-.07-.08-.13-.08-.05,0-.09,.02-.13,.05-.39,.27-.76,.4-1.13,.4-.48,0-.85-.08-1.1-.24Zm.45-.87c0,.23,.08,.41,.25,.53s.37,.19,.62,.19c.21,0,.4-.05,.58-.15s.31-.23,.38-.41c.06-.12,.08-.32,.08-.6v-.43c-.01-.12-.07-.18-.19-.18-1.15,.04-1.72,.39-1.72,1.04Zm3.96,1.08h1.93c.08,0,.14-.02,.18-.05s.07-.07,.07-.12-.02-.09-.05-.12-.08-.05-.15-.05h-.07s-.09,.02-.14,.02c-.12,0-.21-.03-.27-.09-.06-.06-.11-.16-.13-.3-.04-.32-.06-.71-.06-1.19,0-.34,0-.6,.01-.79,0-.17,.05-.36,.15-.56,.1-.2,.23-.37,.4-.5,.16-.14,.33-.21,.52-.21s.35,.07,.51,.21c.17,.14,.31,.34,.41,.6,.11,.26,.16,.56,.16,.89v.64c0,.46-.03,.8-.1,1.01-.07,.22-.22,.31-.44,.27-.09-.02-.15,0-.2,.02-.05,.03-.07,.08-.07,.13,0,.05,.02,.09,.07,.12s.1,.05,.18,.05h1.97c.08,0,.14-.02,.18-.05s.07-.07,.07-.12-.02-.09-.05-.12-.08-.05-.15-.05h-.07s-.08,.02-.14,.02c-.17,0-.28-.08-.33-.23s-.08-.39-.08-.7v-1.07c.01-.48-.07-.89-.23-1.21-.16-.33-.37-.57-.62-.73-.25-.16-.5-.24-.76-.24-.39,0-.77,.16-1.15,.47-.04,.03-.07,.04-.1,.03s-.04-.04-.04-.08v-.02c0-.08,.01-.17,.01-.26s-.06-.14-.17-.14c-.05,0-.11,.03-.19,.08s-.13,.08-.17,.1c-.26,.2-.51,.33-.76,.39-.08,.02-.14,.04-.18,.08-.04,.04-.07,.07-.07,.1,0,.04,.02,.07,.07,.09,.04,.02,.1,.04,.18,.04,.15,0,.26,.07,.33,.2,.07,.13,.1,.3,.1,.52s0,.47,.02,.81v.62c.01,.32-.02,.58-.07,.78-.08,.3-.24,.43-.47,.38-.09-.02-.15,0-.2,.02-.05,.03-.07,.08-.07,.13,0,.05,.02,.09,.07,.12s.1,.05,.18,.05Zm6.11-.48c-.43-.33-.64-.87-.64-1.63,0-.45,.1-.85,.3-1.18,.2-.34,.45-.61,.76-.81,.31-.2,.64-.32,.98-.36,.09-.02,.22-.02,.38-.02,.3,0,.56,.05,.78,.15,.05,.02,.07,.02,.08,.02,.08,0,.12-.05,.12-.15l-.02-2.32c0-.21-.03-.39-.1-.52s-.18-.2-.33-.2c-.17,0-.25-.04-.25-.12,0-.03,.02-.07,.07-.1s.1-.07,.18-.09c.22-.07,.43-.17,.63-.29,.2-.12,.32-.2,.37-.22,.08-.04,.14-.06,.18-.06,.1,0,.15,.05,.15,.14s-.01,.26-.04,.49c-.09,1.13-.13,2.37-.13,3.71v.9c0,.7,0,1.25,.03,1.64,.02,.39,.07,.64,.14,.75,.04,.07,.1,.11,.18,.11,.06,0,.13-.01,.21-.04,.02,0,.06-.01,.11-.01s.08,.01,.11,.04,.04,.05,.04,.08c0,.04-.02,.08-.06,.12s-.09,.07-.17,.09c-.17,.05-.34,.13-.52,.24-.14,.09-.24,.13-.3,.13-.14,0-.26-.07-.36-.22-.06-.1-.12-.13-.2-.07-.32,.2-.71,.3-1.17,.3-.58,0-1.09-.16-1.52-.49Zm.26-1.76c0,.4,.07,.75,.21,1.05s.32,.52,.54,.67,.44,.22,.66,.22c.29,0,.54-.11,.75-.33,.21-.22,.31-.46,.31-.72,0-.28,0-.49,.01-.62,0-.1,0-.24,0-.4s0-.39,0-.69c0-.32-.11-.59-.33-.8-.22-.21-.47-.31-.76-.31-.08,0-.14,0-.18,.01-.19,.03-.38,.12-.57,.27-.19,.15-.35,.36-.47,.64-.13,.28-.19,.61-.19,.99Zm4.71,1.24c-.22-.34-.33-.75-.33-1.23s.11-.9,.33-1.24c.22-.34,.5-.59,.85-.76,.34-.17,.71-.25,1.08-.25s.74,.08,1.09,.25c.35,.17,.63,.42,.85,.76,.22,.34,.33,.75,.33,1.24s-.11,.89-.33,1.23c-.22,.34-.51,.59-.85,.76-.35,.17-.71,.25-1.09,.25s-.74-.08-1.09-.25c-.35-.17-.63-.42-.85-.76Zm.59-1.24c0,.58,.12,1.04,.37,1.4,.25,.36,.57,.54,.98,.54s.74-.18,.98-.53c.24-.36,.37-.83,.37-1.41s-.12-1.04-.37-1.4c-.25-.36-.57-.54-.98-.54s-.73,.18-.98,.54c-.25,.36-.37,.83-.37,1.4Zm4.23,2.24h1.93c.08,0,.14-.02,.18-.05s.07-.07,.07-.12-.02-.09-.05-.12-.08-.05-.15-.05h-.07s-.08,.02-.13,.02c-.17,0-.29-.08-.34-.25s-.08-.43-.08-.78v-1.09s.01-1.72,.01-1.72c0-.87,.03-1.96,.08-3.27l.02-.83c0-.09-.06-.14-.17-.14-.06,0-.12,.03-.21,.08-.08,.05-.14,.08-.16,.1-.3,.21-.56,.34-.79,.39-.08,.02-.14,.04-.18,.08-.04,.04-.07,.07-.07,.1,0,.04,.02,.07,.07,.09,.04,.02,.1,.04,.18,.04,.15,0,.26,.07,.33,.2s.1,.3,.1,.52c0,.19,0,.36,.01,.52,.04,1,.06,2.17,.06,3.51,0,.73-.02,1.3-.07,1.73-.07,.53-.25,.77-.55,.72-.09-.02-.15,0-.2,.02-.05,.03-.07,.08-.07,.13,0,.05,.02,.09,.07,.12s.1,.05,.18,.05Zm3.53-5.27c.18,0,.34-.07,.47-.2s.2-.29,.2-.47-.07-.35-.2-.48c-.13-.13-.29-.2-.47-.2s-.34,.07-.47,.2c-.13,.13-.2,.29-.2,.48s.07,.34,.2,.47,.29,.2,.47,.2Zm6.87,4.99s-.08-.05-.15-.05h-.07s-.08,.02-.14,.02c-.17,0-.28-.08-.33-.23s-.08-.39-.08-.7v-1.07c.01-.48-.07-.89-.23-1.21-.16-.33-.37-.57-.62-.73-.25-.16-.5-.24-.76-.24-.39,0-.77,.16-1.15,.47-.04,.03-.07,.04-.1,.03s-.04-.04-.04-.08v-.02c0-.08,.01-.17,.01-.26s-.06-.14-.17-.14c-.05,0-.11,.03-.19,.08s-.13,.08-.17,.1c-.26,.2-.51,.33-.76,.39-.08,.02-.14,.04-.18,.08-.04,.04-.07,.07-.07,.1,0,.04,.02,.07,.07,.09,.04,.02,.1,.04,.18,.04,.15,0,.26,.07,.33,.2,.07,.13,.1,.3,.1,.52s0,.47,.02,.81v.62c.01,.32-.02,.58-.07,.78-.08,.3-.24,.43-.47,.38-.09-.02-.15,0-.2,.02-.05,.03-.07,.08-.07,.13,0,.05,.02,.09,.07,.12s.1,.05,.18,.05h1.93c.08,0,.14-.02,.18-.05s.07-.07,.07-.12-.02-.09-.05-.12-.08-.05-.15-.05h-.07s-.09,.02-.14,.02c-.12,0-.21-.03-.27-.09-.06-.06-.11-.16-.13-.3-.04-.32-.06-.71-.06-1.19,0-.34,0-.6,.01-.79,0-.17,.05-.36,.15-.56,.1-.2,.23-.37,.4-.5,.16-.14,.33-.21,.52-.21s.35,.07,.51,.21c.17,.14,.31,.34,.41,.6,.11,.26,.16,.56,.16,.89v.64c0,.46-.03,.8-.1,1.01-.07,.22-.22,.31-.44,.27-.09-.02-.15,0-.2,.02-.05,.03-.07,.08-.07,.13,0,.05,.02,.09,.07,.12s.1,.05,.18,.05h1.97c.08,0,.14-.02,.18-.05s.07-.07,.07-.12-.02-.09-.05-.12Zm-32.17,9.52s-.04-.04-.04-.08v-.02c0-.1,.01-.22,.01-.34,0-.09-.06-.14-.17-.14-.05,0-.11,.03-.19,.08s-.13,.08-.17,.1c-.26,.2-.51,.33-.76,.39-.08,.02-.14,.04-.18,.08-.04,.04-.07,.07-.07,.1,0,.04,.02,.07,.07,.09,.04,.02,.1,.04,.18,.04,.15,0,.26,.07,.33,.2,.07,.13,.1,.3,.1,.52v1.27c.01,.43,0,.74-.05,.94-.03,.14-.09,.25-.17,.31-.08,.07-.18,.09-.3,.07-.09-.02-.15,0-.2,.02-.05,.03-.07,.08-.07,.13,0,.05,.02,.09,.07,.12s.1,.05,.18,.05h1.93c.08,0,.14-.02,.18-.05s.07-.07,.07-.12-.02-.09-.05-.12-.08-.05-.15-.05h-.07s-.09,.02-.14,.02c-.12,0-.21-.03-.27-.09-.06-.06-.11-.16-.13-.3-.05-.28-.07-.68-.07-1.19,0-.32,.01-.7,.04-1.13,.06-.24,.17-.43,.33-.56,.15-.13,.33-.19,.54-.19,.12,0,.26,.03,.43,.08,.03,.02,.08,.02,.15,.02,.13,0,.24-.05,.33-.14s.14-.2,.14-.32c0-.17-.09-.28-.28-.34-.06-.02-.15-.04-.25-.04-.19,0-.39,.05-.61,.14s-.41,.23-.59,.41c-.04,.04-.07,.06-.09,.05Zm3.32-.34c-.33,.17-.6,.43-.82,.77-.21,.34-.32,.76-.32,1.24s.11,.89,.32,1.23c.21,.34,.49,.59,.82,.76,.33,.17,.67,.25,1.01,.25,.38,0,.73-.11,1.06-.33,.33-.22,.57-.5,.74-.86,.02-.02,.02-.06,.02-.11,0-.04-.01-.07-.04-.09s-.06-.04-.09-.04c-.06,0-.12,.04-.15,.11-.18,.3-.39,.52-.62,.67-.23,.15-.5,.22-.81,.22-.22,0-.43-.07-.64-.22s-.37-.36-.5-.63c-.13-.28-.2-.6-.2-.97s.06-.7,.17-1c.11-.3,.27-.53,.45-.69,.19-.17,.39-.25,.6-.25,.36,0,.64,.09,.84,.28,.19,.19,.3,.44,.31,.76,0,.13,.04,.22,.1,.29s.13,.1,.22,.1c.1,0,.18-.04,.26-.12,.07-.08,.11-.2,.11-.34,0-.13-.03-.27-.09-.4-.09-.22-.29-.42-.59-.6-.3-.18-.68-.27-1.16-.27-.34,0-.68,.08-1.01,.25Zm23.87,.12c0-.17-.09-.28-.28-.34-.06-.02-.15-.04-.25-.04-.19,0-.39,.05-.61,.14s-.41,.23-.59,.41c-.04,.04-.07,.06-.09,.05s-.04-.04-.04-.08v-.02c0-.1,.01-.22,.01-.34,0-.09-.06-.14-.17-.14-.05,0-.11,.03-.19,.08s-.13,.08-.17,.1c-.26,.2-.51,.33-.76,.39-.08,.02-.14,.04-.18,.08-.04,.04-.07,.07-.07,.1,0,.04,.02,.07,.07,.09,.04,.02,.1,.04,.18,.04,.15,0,.26,.07,.33,.2,.07,.13,.1,.3,.1,.52v1.27c.01,.43,0,.74-.05,.94-.03,.14-.09,.25-.17,.31-.08,.07-.18,.09-.3,.07-.09-.02-.15,0-.2,.02-.05,.03-.07,.08-.07,.13,0,.05,.02,.09,.07,.12s.1,.05,.18,.05h1.93c.08,0,.14-.02,.18-.05s.07-.07,.07-.12-.02-.09-.05-.12-.08-.05-.15-.05h-.07s-.09,.02-.14,.02c-.12,0-.21-.03-.27-.09-.06-.06-.11-.16-.13-.3-.05-.28-.07-.68-.07-1.19,0-.32,.01-.7,.04-1.13,.06-.24,.17-.43,.33-.56,.15-.13,.33-.19,.54-.19,.12,0,.26,.03,.43,.08,.03,.02,.08,.02,.15,.02,.13,0,.24-.05,.33-.14s.14-.2,.14-.32Zm4.6,3.72s.04,.06,.04,.09c0,.1-.08,.17-.23,.23s-.31,.08-.48,.08c-.35,0-.59-.12-.72-.36-.03-.05-.07-.08-.13-.08-.05,0-.09,.02-.13,.05-.39,.27-.76,.4-1.13,.4-.48,0-.85-.08-1.1-.24-.25-.16-.37-.43-.36-.83,.02-.46,.3-.8,.84-1.01,.53-.22,1.1-.35,1.7-.39,.11-.02,.17-.08,.17-.19v-.6c0-.29-.07-.52-.23-.69-.15-.17-.34-.25-.58-.25-.26,0-.47,.08-.62,.23-.15,.15-.23,.35-.23,.59,0,.17-.04,.29-.12,.37s-.18,.12-.3,.12c-.1,0-.2-.04-.28-.12s-.12-.19-.12-.34c0-.2,.08-.38,.24-.56,.16-.18,.38-.32,.64-.43,.27-.11,.54-.17,.82-.17,.46,0,.84,.11,1.14,.34,.3,.22,.45,.55,.45,.98v2.14c0,.49,.1,.73,.3,.73,.02,0,.08-.02,.17-.07,.09-.04,.14-.07,.15-.07,.04,0,.07,.01,.09,.04Zm-1.53-1.13v-.43c-.01-.12-.07-.18-.19-.18-1.15,.04-1.72,.39-1.72,1.04,0,.23,.08,.41,.25,.53s.37,.19,.62,.19c.21,0,.4-.05,.58-.15s.31-.23,.38-.41c.06-.12,.08-.32,.08-.6Zm-23.34,14.08s-.02,.08-.06,.12-.09,.07-.17,.09c-.17,.05-.34,.13-.52,.24-.14,.09-.24,.13-.3,.13-.23,0-.37-.16-.43-.49,0-.07-.03-.11-.07-.11-.02,0-.06,.02-.09,.06-.35,.35-.75,.52-1.21,.52-.22,0-.44-.05-.67-.14-.23-.09-.41-.23-.56-.41-.15-.18-.23-.39-.23-.63v-1.29c-.53,.13-1.07,.25-1.6,.35,.14,.1,.27,.19,.38,.33,.13,.17,.2,.38,.2,.62,0,.35-.14,.63-.43,.85-.29,.22-.64,.33-1.06,.33-.34,0-.61-.04-.8-.13s-.34-.17-.43-.24c-.09-.07-.14-.11-.15-.11-.02,0-.04,.02-.05,.07s-.01,.11-.01,.18c0,.05-.02,.09-.05,.13s-.07,.06-.12,.06c-.1,0-.15-.06-.15-.18v-1.29c0-.05,.02-.1,.05-.13,.03-.03,.07-.05,.12-.05,.04,0,.07,.02,.11,.05s.05,.08,.05,.13c0,.17,.07,.34,.21,.53,.14,.19,.31,.34,.52,.47s.42,.19,.62,.19c.25,0,.46-.06,.62-.17s.24-.27,.24-.47c0-.15-.09-.29-.28-.42-.19-.13-.48-.29-.87-.49l-.09-.04c-1.74,.23-3.49,.3-5.23,.18,.02,.49,.04,.81,.08,.94,.05,.18,.14,.31,.28,.38,.14,.08,.33,.11,.57,.11,.09,0,.22,0,.41-.02h.05c.07,0,.13,.02,.17,.05s.06,.07,.06,.12c0,.04-.02,.07-.07,.11s-.1,.05-.18,.05h-3.63c-.08,0-.14-.02-.18-.05-.04-.03-.07-.07-.07-.12s.03-.09,.08-.12c.05-.03,.12-.04,.2-.04,.19,.02,.33,.02,.41,.02,.24,0,.43-.04,.57-.11,.14-.07,.24-.2,.28-.38,.04-.14,.06-.48,.08-1.01-.82-.09-1.64-.23-2.45-.4v4.64c0,.89-.33,1.58-.98,2.1-.65,.51-1.38,.77-2.17,.77-.65,0-1.07-.2-1.26-.59-.19-.4-.28-.92-.28-1.57,0-.59-.11-1.09-.32-1.51-4.56,2.14-8.28,6.19-13.29,7.45-10.98,2.64-17.87-3.84-17.55-14.1-.25,.09-.5,.19-.75,.29-.3,.24-.64,.37-1,.39-3.15,1.29-6.14,2.97-8.9,4.98v2.93c0,.84-.31,1.53-.94,2.06-.63,.54-1.29,.8-1.99,.8-.47,0-.85-.15-1.15-.45-.3-.3-.43-.73-.38-1.29v-.29c-2.32,2.24-4.41,4.72-6.16,7.44,1.73-2.78,3.82-5.32,6.16-7.6v-1.74c-2.32,2.24-4.41,4.72-6.16,7.44,1.73-2.78,3.82-5.32,6.16-7.6v-1.74c-2.32,2.24-4.41,4.72-6.16,7.44,1.73-2.78,3.82-5.32,6.16-7.6v-1.74c-2.32,2.24-4.41,4.72-6.16,7.44,1.73-2.78,3.82-5.32,6.16-7.6v-1.74c-2.32,2.24-4.41,4.72-6.16,7.44,1.73-2.78,3.82-5.32,6.16-7.6v-15.17c0-.7-.17-1.25-.52-1.64-.35-.4-.83-.59-1.43-.59-.19,0-.47,.05-.84,.14-2.33,.61-4.41,1.07-6.22,1.4-1.31,.23-1.82,.84-1.54,1.82l.07,.35c0,.23-.08,.43-.24,.59-.16,.16-.34,.24-.52,.24-.28,0-.56-.16-.84-.49-.42-.51-.77-1.17-1.05-1.96s-.42-1.54-.42-2.24c0-1.35,.53-2.03,1.61-2.03l3.78-.21c.79-.05,1.49-.37,2.1-.98,1.1-1.04,2.14-2.23,3.14-3.52,.24-2.28-1.05-4.06-1.54-4.64-.07-.08-.13-.14-.2-.23-1.03-1.35-2.11-2.74-3.25-4.16-1.14-1.42-2.16-2.55-3.04-3.39-.19-.19-.28-.42-.28-.7s.13-.49,.38-.63c.26-.14,.57-.14,.94,0,.46,.19,1.09,.51,1.89,.98,.37,.23,.72,.35,1.05,.35,.61,0,1.07-.28,1.4-.84,1.44-2.19,2.59-4.44,3.43-6.75,.84-2.31,1.4-4.49,1.68-6.54,.14-.88,.52-1.62,1.15-2.2,.63-.58,1.39-.87,2.27-.87,1.16,0,2.38,.56,3.64,1.68,.37,.37,.56,.7,.56,.98,0,.37-.23,.54-.7,.49-1.17-.09-1.98,.61-2.45,2.1-.56,1.63-1.54,3.59-2.94,5.87-1.4,2.28-3.01,4.45-4.82,6.5-.37,.47-.56,.86-.56,1.19,0,.42,.18,.99,.64,1.45,.14,.14,.38,.38,.65,.66h0c2.55,2.88,4.65,.99,4.95,.7,1.51-3.13,2.61-6.12,3.27-8.97,.14-.61,.45-1.07,.94-1.4,.49-.33,1.04-.49,1.64-.49,.84,0,1.63,.23,2.38,.7,.75,.47,1.31,1.14,1.68,2.03,.14,.33,.21,.65,.21,.98,0,.51-.33,.65-.98,.42l-.56-.14c-.61,0-1.17,.49-1.68,1.47-1.21,2.52-2.7,5.14-4.47,7.87-1.77,2.73-3.66,5.16-5.66,7.31-.42,.42-.63,.82-.63,1.19,0,.23,.14,.41,.42,.52,.28,.12,.65,.15,1.12,.1,3.22-.47,5.94-.98,8.18-1.54,.89-.23,1.33-.67,1.33-1.33,0-.14-.09-.44-.28-.91-.33-.79-.79-1.79-1.4-3.01-.23-.37-.35-.7-.35-.98,0-.33,.12-.56,.35-.7,.23-.14,.56-.14,.98,0,.93,.42,1.96,1.24,3.08,2.45,1.12,1.21,2.07,2.56,2.87,4.06,.79,1.49,1.21,2.84,1.26,4.06,.14,.93,0,1.69-.42,2.27-.42,.58-.96,.87-1.61,.87-.93,0-1.63-.56-2.1-1.68l-.77-2.24c-.28-.84-.77-1.26-1.47-1.26-.14,0-.4,.05-.77,.14l-1.96,.63c-1.35,.42-2.03,1.33-2.03,2.73v13.33c1.7-1.25,3.48-2.37,5.34-3.35-.18-.5-.35-.96-.52-1.38-.56-1.4-1.28-2.61-2.17-3.64-.28-.28-.42-.61-.42-.98,0-.33,.13-.57,.38-.73,.26-.16,.59-.2,1.01-.1,1.12,.33,2.26,1.04,3.43,2.13,.9,.85,1.68,1.8,2.33,2.85,.97-.39,1.96-.73,2.96-1.04,.36-.9,.77-1.78,1.22-2.65V15.1c0-.51,.35-.77,1.05-.77,.84,0,1.53,.12,2.06,.35,.54,.23,1.08,.54,1.64,.91,.56,.37,.96,.56,1.19,.56h5.87c.79,0,1.4-.22,1.82-.66,.42-.44,.63-1.04,.63-1.78V3.5c0-1.17,.34-2.04,1.01-2.62,.68-.58,1.53-.87,2.55-.87,.84,0,1.54,.16,2.1,.49,.05,.03,.08,.05,.12,.08,0,0,0-.01,0-.01,.03,.02,.05,.05,.09,.07,.14,.1,.26,.19,.35,.29,4.77,3.77,1.95,9.99-1.04,14.61,.44,.42,1.01,.63,1.74,.63h4.54c.42,0,.83-.1,1.22-.31,.4-.21,.76-.45,1.08-.73,.28-.23,.58-.45,.91-.66,.33-.21,.65-.31,.98-.31,.51,0,1.18,.23,1.99,.7,.81,.47,1.53,1,2.13,1.61,.61,.61,.91,1.1,.91,1.47,0,.33-.07,.57-.21,.73-.14,.16-.35,.36-.63,.59-.37,.28-.66,.58-.87,.91-.21,.33-.31,.82-.31,1.47v2.06h1.24c.18,0,.3,.05,.36,.14,.02,.03,.04,.09,.07,.19l2.36,5.59c.03,.08,.07,.12,.12,.12,.06,0,.09-.04,.12-.11l2.42-5.62c.02-.06,.06-.13,.09-.19,.05-.09,.17-.13,.38-.13h1.81c.08,0,.14,.02,.18,.05s.07,.07,.07,.12-.03,.09-.08,.12-.12,.04-.2,.04c-.19-.02-.33-.02-.41-.02-.24,0-.43,.04-.57,.11-.14,.08-.24,.2-.28,.39-.02,.1-.04,.33-.04,.68,0,.78,.05,1.88,.15,3.29,.1,1.41,.18,2.25,.24,2.5,.05,.18,.14,.31,.28,.38,.14,.08,.33,.11,.57,.11,.09,0,.22,0,.41-.02h.05c.07,0,.13,.02,.17,.05s.06,.07,.06,.12c0,.04-.02,.07-.07,.11s-.11,.05-.18,.05h-3.63c-.08,0-.14-.02-.18-.05s-.07-.07-.07-.12,.03-.09,.08-.12,.12-.04,.2-.04c.19,.02,.33,.02,.41,.02,.24,0,.43-.04,.57-.11,.14-.07,.24-.2,.28-.38,.02-.11,.04-.31,.04-.6,0-.57-.06-1.87-.19-3.91l-.07-1.04c0-.09-.04-.14-.09-.14-.04,0-.08,.04-.12,.11l-2.31,5.39c-.05,.11-.1,.2-.16,.26s-.12,.09-.17,.09c-.11,0-.21-.1-.3-.3l-1.97-4.81c-.03-.07-.07-.11-.12-.11s-.08,.05-.1,.14c-.06,.75-.12,1.53-.17,2.35-.05,.82-.07,1.46-.07,1.94,0,.31,.01,.52,.04,.63,.05,.18,.14,.31,.28,.38,.14,.08,.33,.11,.57,.11,.09,0,.23,0,.41-.02h.05c.07,0,.13,.02,.17,.05,.04,.03,.06,.07,.06,.12,0,.04-.02,.07-.07,.11-.04,.03-.11,.05-.18,.05h-2.52v6.23c.32-.37,.68-.7,1.1-.92,.61-.31,1.23-.47,1.86-.47s1.25,.16,1.86,.47c.61,.31,1.11,.78,1.51,1.41,.39,.63,.59,1.39,.59,2.28s-.2,1.65-.59,2.28c-.4,.62-.9,1.09-1.51,1.4-.61,.31-1.23,.46-1.86,.46s-1.25-.15-1.86-.46c-.43-.22-.78-.54-1.1-.91v4.4c6.35,1.41,13.16,.03,18.95-3.04h-.34c-.08,0-.14-.02-.18-.05s-.07-.07-.07-.12c0-.06,.02-.1,.07-.13,.05-.03,.11-.04,.2-.02,.23,.04,.38-.05,.44-.27,.07-.22,.1-.56,.1-1.01v-.64c0-.33-.05-.63-.16-.89-.11-.26-.24-.46-.41-.6-.17-.14-.34-.21-.51-.21s-.33,.06-.49,.18c-.16,.12-.29,.31-.39,.55-.1,.24-.15,.55-.15,.9v1.07c-.01,.32,.02,.55,.07,.7s.17,.23,.33,.23c.06,0,.11,0,.14-.01h.07c.06-.01,.11,0,.15,.04s.05,.07,.05,.12-.02,.09-.07,.12-.1,.05-.18,.05h-1.93c-.08,0-.14-.02-.18-.05s-.07-.07-.07-.12c0-.06,.02-.1,.07-.13,.05-.03,.11-.04,.2-.02,.29,.05,.47-.19,.55-.72,.05-.43,.07-1,.07-1.73,0-1.33-.02-2.5-.06-3.51,0-.16-.01-.33-.01-.52,0-.21-.03-.39-.1-.52s-.18-.2-.33-.2c-.08,0-.14-.01-.18-.04-.04-.02-.07-.05-.07-.09,0-.03,.02-.07,.07-.1,.04-.04,.1-.06,.18-.08,.23-.05,.49-.18,.79-.39,.02-.02,.08-.05,.16-.1,.08-.05,.15-.08,.21-.08,.11,0,.17,.05,.17,.14l-.02,.7c-.05,1.66-.07,2.82-.08,3.48,0,.05,0,.08,.03,.11,.02,.03,.05,.04,.08,.04s.07-.02,.11-.06c.36-.35,.73-.52,1.1-.52,.26,0,.52,.08,.76,.24,.25,.16,.45,.4,.62,.73,.16,.33,.24,.73,.24,1.21v1.07c-.01,.28,.01,.48,.06,.63,.43-.25,.85-.51,1.26-.78-.09-.25-.15-.52-.15-.83,0-.48,.11-.89,.32-1.24,.21-.34,.49-.6,.82-.77,.33-.17,.67-.25,1.01-.25,.5,0,.92,.13,1.26,.38,.09,.07,.14,.16,.21,.25,1.04-.86,2.11-1.85,2.99-2.56,1.93-1.81,4.19-4.37,6.1-6.71h-.5c-.08,0-.14-.02-.18-.05s-.07-.07-.07-.12c0-.06,.02-.1,.07-.13,.05-.03,.11-.04,.2-.02,.24,.05,.39-.08,.47-.38,.05-.17,.07-.44,.07-.81,0-.26,0-.46-.01-.6v-.79c-.01-.21-.05-.38-.11-.52-.07-.13-.18-.2-.33-.2-.08,0-.14-.01-.18-.04-.04-.02-.07-.06-.07-.09,0-.03,.02-.07,.07-.1,.04-.04,.1-.06,.18-.08,.24-.06,.5-.19,.76-.39,.03-.02,.09-.05,.17-.1s.14-.08,.19-.08c.11,0,.17,.05,.17,.14l-.02,.47-.05,.82c-.02,.29-.02,.68-.02,1.16,0,.36,.01,.63,.03,.86,.3-.37,.58-.74,.85-1.09-.27,.36-.55,.73-.85,1.11,0,.11,.02,.23,.03,.31,.02,.13,.07,.23,.13,.3,.06,.06,.15,.09,.27,.09,.05,0,.1,0,.14-.01h.07c.06-.01,.11,0,.15,.04,.02,.02,.03,.05,.04,.08,0,0,.01-.01,.02-.02,0,0-.01,.01-.02,.02,0,.01,.02,.02,.02,.04,0,.05-.02,.09-.07,.12-.02,.01-.06,.01-.09,.02-2.11,2.81-5.08,6.38-7.53,8.74,0,0,0,0-.01,.01,.01,0,.03,0,.05,.01,.18,.06,.32,.12,.41,.18,.1,.06,.16,.09,.17,.09,.04,0,.06-.06,.06-.18,0-.05,.02-.08,.05-.11s.07-.04,.11-.04c.05,0,.09,.02,.12,.05,.03,.03,.05,.07,.05,.12v.59c.15-.16,.31-.32,.47-.49-.01-.03-.03-.05-.03-.08,0-.06,.02-.12,.06-.16s.1-.07,.18-.07c.04,0,.07-.02,.11-.02,.28-.3,.57-.61,.86-.92,0,0,0,0,0,0,.03-.15,.06-.26,.09-.33,.03-.07,.08-.1,.15-.1,.05,0,.07,.03,.1,.05,1.69-1.88,3.38-3.93,4.69-5.64-1.3,1.74-2.95,3.8-4.61,5.69,.03,.05,.05,.12,.05,.21v.97c0,.08,.04,.12,.12,.12,.1,0,.16,0,.25,0,1.52-1.72,3.01-3.54,4.2-5.09-1.16,1.56-2.61,3.37-4.09,5.09,.11,0,.25,0,.33,0,.18,0,.31-.01,.38-.01s.12,.02,.16,.06,.05,.09,.05,.15c0,.06-.02,.11-.06,.15s-.09,.07-.15,.06c-.21-.02-.56-.03-1.04-.03-.05,.06-.11,.12-.16,.18,0,.56,0,1.16,0,1.78,1.66-1.85,3.3-3.85,4.58-5.52-1.29,1.73-2.93,3.77-4.58,5.65,0,.33,0,.64,0,.99,0,.13,.04,.26,.13,.37s.2,.17,.33,.17c.17,0,.36-.11,.56-.33,.07-.08,.13-.12,.19-.12,.06,0,.09,.04,.09,.11s-.04,.15-.11,.25c-.14,.17-.32,.32-.55,.43s-.47,.17-.73,.17-.45-.1-.56-.3c-.1-.2-.15-.44-.15-.73v-.1c-.79,.87-1.57,1.69-2.3,2.39-1.35,1.11-3.09,2.85-4.54,3.76-2.48,1.87-5.28,3.42-8.24,4.53-.03,.56-.04,1.03-.04,1.42,0,.46,.02,.83,.07,1.1,.04,.28,.13,.41,.26,.41,.04,0,.1,0,.17-.03s.13-.03,.16-.03c.1,0,.15,.04,.15,.12Zm12.38-13.54c-.12,.12-.24,.24-.35,.35-.11,.09-.22,.19-.33,.28,.18-.02,.33-.06,.45-.15,.16-.11,.24-.27,.24-.47,0,0,0,0,0-.01Zm-5,3.97c1.17-.73,2.55-2,3.74-3.03-.11-.02-.21-.05-.3-.08-.19-.09-.34-.17-.43-.24-.09-.07-.14-.11-.15-.11-.02,0-.04,.02-.05,.07s-.01,.11-.01,.18c0,.05-.02,.09-.05,.13s-.07,.06-.12,.06c-.1,0-.15-.06-.15-.18v-.41c-.81,.71-1.63,1.4-2.38,1.87-5.64,4.25-12.94,6.84-20.02,6.35,0,.44,0,.93,0,1.51,0,.04,0,.08,0,.12,1.4,.1,2.8,.09,4.2-.04,.12-.15,.27-.27,.46-.37,.23-.11,.5-.17,.81-.17,.28,0,.52,.03,.69,.09,.14,.05,.24,.1,.34,.15,.1-.02,.21-.04,.31-.06,0-.04,.01-.08,.04-.11,.03-.03,.07-.04,.11-.04,.05,0,.09,.02,.12,.05,.01,.01,0,.03,.02,.04,4.63-.92,9.1-2.98,12.82-5.77Zm-14.45,5.99c-.21,0-.38,.05-.51,.13,.23-.03,.47-.07,.7-.1-.06,0-.13-.02-.19-.02Zm-13.26-1.42s-.05-.02-.07-.03c-3.07-1.16-6.34-2.1-9.65-2.73v1.6c3.32,.61,6.57,1.53,9.72,2.74v-1.58Zm-23.98,1.56c0,.75,.22,1.34,.66,1.78,.44,.44,1.04,.66,1.78,.66h4.89c.79,0,1.4-.22,1.82-.66,.42-.44,.63-1.04,.63-1.78v-3.07c-.11-.01-.22-.03-.33-.04-3.18-.35-6.35-.24-9.46,.23v2.88Zm9.79-3.36v-1.61c-.11-.01-.22-.03-.33-.04-3.18-.35-6.35-.24-9.46,.23v1.64c3.12-.48,6.3-.6,9.49-.26,.1,0,.2,.03,.3,.04Zm14.19-9.71c0-.79-.19-1.4-.56-1.82-.37-.42-.89-.63-1.54-.63h-5.17c-.75,0-1.34,.21-1.78,.63-.44,.42-.66,1.03-.66,1.82v2.76c3.32,.61,6.57,1.53,9.72,2.74v-5.5Zm29.69,2.8c0,.08-.02,.15-.07,.2-.22,.32-.47,.56-.73,.72-.27,.16-.61,.24-1.02,.24-.27,0-.53-.06-.79-.15-4.63,3.29-10.25,5.49-15.94,5.84,.07,.78,.11,1.31,.11,1.58,0,.02-.01,.03-.01,.05,5.91-.37,11.77-2.73,16.47-6.25,.78-.48,1.64-1.21,2.48-1.94v-.67c0-.05,.02-.1,.05-.13,.03-.03,.07-.05,.12-.05,.04,0,.07,.02,.11,.05s.05,.08,.05,.13c0,.1,.03,.21,.08,.31,.29-.25,.57-.5,.85-.74l-.1-.05c-.26-.13-.47-.24-.62-.33-.14-.09-.26-.21-.37-.36-.86,.76-1.74,1.51-2.54,2.01-.07,.05-.14,.1-.21,.15,.12,.04,.24,.09,.38,.09,.33,0,.62-.07,.87-.22,.24-.15,.42-.32,.53-.52,.05-.09,.12-.14,.19-.14,.08,0,.12,.05,.12,.15Zm1.23-2.23c.3-.26,.59-.52,.87-.75-.03,0-.07-.01-.1-.01-.26,0-.46,.06-.6,.17-.14,.12-.21,.26-.21,.42,0,.06,.02,.12,.04,.17Zm-20.67,9.13c-.8,.02-1.61,0-2.41-.05-.03,.32-.05,.88-.06,1.62,1.02,.08,2.04,.1,3.07,.05-.01-.04-.03-.06-.03-.11,0-.71-.2-1.21-.57-1.52Zm-.49-.26s-.09-.05-.14-.06c-.18-.03-.5-.04-.95-.04h-.49c-.07,0-.12,.03-.17,.05,.58,.04,1.16,.05,1.75,.05Zm-4.4-.08c-.08,0-.18,.01-.24,.02-.19,.03-.37,.1-.55,.22-.04,.03-.07,.06-.11,.09v1.09c.83,.18,1.66,.33,2.5,.42,0-.16,0-.33,0-.53,0-.46-.01-.82-.04-1.08,0,0,0-.01-.01-.02-.52-.06-1.05-.13-1.56-.22Zm-29.35-1.33c3.12-.48,6.3-.6,9.49-.26,.1,0,.2,.03,.3,.04v-1.61c-.11-.01-.22-.03-.33-.04-3.18-.35-6.35-.24-9.46,.23v1.64Zm-4.47-.72c-.7,.19-1.39,.41-2.08,.64-.11,.58-.2,1.16-.27,1.74,.78-.27,1.56-.52,2.35-.73v-1.65Zm28.46,.4s-.05-.02-.07-.03c-3.07-1.16-6.34-2.1-9.65-2.73v1.6c3.32,.61,6.57,1.53,9.72,2.74v-1.58Zm-14.19-3.41c-.11-.01-.22-.03-.33-.04-3.18-.35-6.35-.24-9.46,.23v1.64c3.12-.48,6.3-.6,9.49-.26,.1,0,.2,.03,.3,.04v-1.61Zm4.47,4.15c3.32,.61,6.57,1.53,9.72,2.74v-1.58s-.05-.02-.07-.03c-3.07-1.16-6.34-2.1-9.65-2.73v1.6Zm9.72-2.63s-.05-.02-.07-.03c-3.07-1.16-6.34-2.1-9.65-2.73v1.6c3.32,.61,6.57,1.53,9.72,2.74v-1.58Zm-23.98-3.48c3.12-.48,6.3-.6,9.49-.26,.1,0,.2,.03,.3,.04v-2.05c0-.79-.21-1.4-.63-1.82s-1.03-.63-1.82-.63h-4.96c-.75,0-1.33,.21-1.75,.63-.42,.42-.63,1.03-.63,1.82v2.28Zm.63-7.73c.42,.42,1,.63,1.75,.63h4.96c.79,0,1.4-.22,1.82-.66,.42-.44,.63-1.04,.63-1.78v-11.56c-3.39,4.08-6.66,8.29-9.58,12.72,.1,.25,.24,.47,.42,.65Zm-.63,7.99v1.64c3.12-.48,6.3-.6,9.49-.26,.1,0,.2,.03,.3,.04v-1.61c-.11-.01-.22-.03-.33-.04-3.18-.35-6.35-.24-9.46,.23Zm-4.47,.92c-.28,.08-.56,.18-.84,.26-.24,.61-.46,1.23-.65,1.86,.5-.16,.99-.33,1.5-.47v-1.65Zm-1.57,2.38c-.17,.59-.33,1.19-.46,1.8,.67-.22,1.35-.45,2.03-.63v-1.65c-.53,.14-1.05,.32-1.57,.48Zm-.46,.14c-.4,.13-.81,.28-1.21,.42,.22,.5,.38,.99,.5,1.46,.1-.03,.19-.06,.29-.1,.12-.6,.25-1.2,.42-1.79Zm-.66,2.11c.03,.16,.08,.31,.1,.47,.03-.18,.06-.36,.09-.53-.06,.02-.13,.04-.19,.07Zm.31,1.79c-.06,.57-.11,1.13-.12,1.7,.83-.29,1.66-.55,2.5-.78v-1.65c-.8,.22-1.59,.47-2.38,.73Zm35.31,2.73c.82,.18,1.64,.33,2.48,.42,0-.02,0-.03,0-.05v-1.24c.01-.09,.02-.21,.02-.32-.84-.09-1.67-.23-2.49-.41v1.61Zm27.31-9.07c.16-.14,.32-.27,.47-.39,.13-.12,.27-.26,.4-.39-.04-.09-.11-.18-.23-.26-.18-.13-.47-.29-.85-.48-.3,.26-.6,.53-.91,.81,.02,.03,.02,.05,.04,.08,.14,.19,.31,.34,.52,.47,.18,.11,.37,.16,.55,.18Zm1.49-1.39c.45-.45,.91-.94,1.38-1.44v-.79c0-.08-.04-.12-.12-.12-.14,0-.25,0-.34,0s-.15,0-.21,0c-.04,0-.06-.02-.09-.04-.18,.2-.37,.4-.55,.58v.46s-.02,.09-.05,.12-.07,.05-.11,.05-.07-.02-.11-.05-.05-.07-.05-.12c0-.04-.01-.08-.02-.12-.22,.22-.44,.45-.66,.66-.03,.02-.05,.05-.08,.07,.19,.09,.36,.17,.49,.24,.19,.11,.34,.25,.47,.41,.02,.02,.02,.05,.04,.07Zm1.04-2.82c.21-.05,.38-.12,.47-.27,.07-.11,.12-.26,.16-.43-.21,.24-.42,.47-.63,.7Zm-2.33,.43c-.32,.27-.65,.57-1,.87,.12,.18,.33,.36,.66,.51,.07,.03,.14,.06,.2,.09s.12,.05,.18,.08c.03,.01,.06,.03,.09,.04,.04-.03,.09-.07,.13-.11,.23-.22,.48-.46,.72-.7-.03-.07-.06-.15-.12-.23-.11-.17-.27-.31-.48-.43-.12-.07-.25-.11-.39-.14Zm-2.61,.38c.12,.2,.19,.41,.19,.67,0,.17-.03,.3-.1,.39-.07,.09-.15,.14-.24,.14h-1.45c-.38,.28-.77,.55-1.17,.82,.06,.26,.16,.5,.3,.71,.13,.19,.28,.33,.45,.42,.11-.08,.22-.15,.33-.23,.8-.5,1.7-1.25,2.57-2.01-.06-.13-.11-.28-.11-.46,0-.21,.06-.41,.18-.6,.12-.19,.3-.34,.53-.45,.23-.11,.5-.17,.81-.17,.18,0,.34,.02,.47,.04,.03-.02,.06-.05,.09-.07,2.47-2.32,5.5-5.88,7.62-8.63-.03,0-.05,.02-.09,.02h-1.39c-1.89,2.38-4.13,4.97-6.04,6.82-.89,.73-1.94,1.73-2.97,2.59Zm-.65,.52c-.17,.13-.34,.26-.51,.37h.18c.14,0,.23-.03,.27-.1s.06-.15,.06-.25c0,0,0-.01,0-.02Zm-2.12,.24c0,.09,.06,.14,.17,.14h1.12c.26-.18,.53-.37,.8-.58-.03-.19-.1-.37-.22-.5-.17-.19-.39-.28-.67-.28s-.51,.1-.72,.3c-.21,.2-.37,.49-.47,.86,0,.02-.01,.04-.01,.06Zm-.02,1.05c.3-.2,.59-.41,.88-.62h-.76c-.12,0-.18,.05-.18,.16,0,.17,.04,.31,.06,.46Zm-22.11,5.24v1.61c.21,.05,.42,.1,.63,.14h2.26s3.44,0,3.44,0c.17,0,.26,.13,.3,.37,5.61-.33,11.18-2.46,15.76-5.67-.02-.01-.05-.01-.07-.03-.34-.17-.61-.42-.82-.76-.04-.07-.06-.15-.09-.22-.41,.27-.83,.53-1.25,.78,.06,.08,.14,.13,.26,.13,.06,0,.11,0,.14-.01h.07c.06-.01,.11,0,.15,.04s.05,.07,.05,.12-.02,.09-.07,.12-.1,.05-.18,.05h-1.22c-5.88,3.23-12.84,4.74-19.37,3.33Zm0-7.97v1.02c.05,.53,.15,1.04,.35,1.48,.26,.58,.63,1.03,1.08,1.35,.46,.32,.97,.48,1.53,.48s1.07-.16,1.53-.48c.46-.32,.82-.77,1.08-1.35,.27-.58,.4-1.24,.4-1.98s-.13-1.42-.4-2c-.26-.58-.63-1.03-1.08-1.36-.46-.32-.97-.49-1.53-.49s-1.07,.16-1.53,.49c-.46,.32-.82,.78-1.08,1.36-.2,.44-.3,.95-.35,1.48Zm0-16.25v7.4c.08-.02,.19-.02,.26-.05,.14-.07,.24-.2,.28-.38,.06-.25,.14-1.08,.24-2.49,.1-1.42,.15-2.52,.15-3.3,0-.35-.01-.57-.04-.68-.05-.18-.14-.31-.28-.39-.14-.07-.33-.11-.57-.11-.01,0-.03,0-.05,0Zm-11.75-5.92c-.75,0-1.34,.21-1.78,.63-.44,.42-.66,1.03-.66,1.82v13.29c0,.75,.22,1.34,.66,1.78,.44,.44,1.04,.66,1.78,.66h4.89c.75,0,1.33-.21,1.75-.63,.42-.42,.63-1.03,.63-1.82v-13.29c0-.79-.21-1.4-.63-1.82-.42-.42-1.03-.63-1.82-.63h-4.82Zm-2.45-4.34c0,.57,.13,1.05,.38,1.44,2.57-4.31,5.02-10.29,.41-13-.22,.07-.41,.2-.55,.44-.16,.28-.24,.58-.24,.91V13.7Zm-14.19,20.71c.29-.44,.58-.88,.86-1.32,2.75-3.97,5.75-7.87,8.85-11.59v-1.02c0-.79-.21-1.4-.63-1.82-.42-.42-1.03-.63-1.82-.63h-4.89c-.75,0-1.34,.21-1.78,.63-.44,.42-.66,1.03-.66,1.82v13.22c0,.26,.03,.49,.08,.71Zm-5.28,9.99c.24-.07,.48-.16,.73-.23v-1.4c-.26,.53-.5,1.07-.73,1.62Zm-3.33,1.39c.15,.24,.29,.48,.43,.74,.11,.22,.2,.43,.3,.64,.46-.17,.92-.33,1.38-.48,.19-.63,.4-1.24,.64-1.85-.93,.29-1.84,.61-2.74,.96Zm-9.5,6.91c1.87-1.37,3.83-2.6,5.89-3.65-.17-.5-.33-.97-.48-1.41-1.88,.98-3.69,2.11-5.41,3.36v1.7Zm0,1.9c2.02-1.49,4.17-2.79,6.42-3.89-.16-.51-.31-1-.46-1.46-2.08,1.05-4.07,2.28-5.95,3.65v1.7Zm0,1.9c2.19-1.61,4.53-3.01,6.99-4.16-.1-.2-.21-.41-.28-.67-.08-.27-.16-.51-.24-.77-2.27,1.1-4.43,2.41-6.48,3.9v1.7Zm0,1.9c2.63-1.93,5.46-3.57,8.45-4.84-.29-.07-.59-.19-.87-.42-.2-.16-.37-.37-.52-.61-2.48,1.16-4.85,2.56-7.07,4.17v1.7Zm10.65-5.7c0-.15,.02-.3,.03-.45-.09,.18-.19,.35-.3,.5-.02,.03-.05,.05-.08,.08,.12-.04,.23-.09,.34-.13Zm2.36,8.73c.22,.41,.48,.78,.75,1.15-.11-.24-.19-.53-.19-.9v-9.65c-.84,.23-1.68,.49-2.51,.77-.05,2.99,.55,5.95,1.95,8.64Zm27.73-2.69c-.37-.23-.82-.36-1.37-.36h-18.88c-.79,0-1.4,.17-1.82,.52-.42,.35-.63,.85-.63,1.5,0,.84-.33,1.53-.98,2.06-.65,.53-1.35,.8-2.1,.8-.37,0-.65-.11-.87-.28,3.24,3.85,9.17,4.69,13.91,3.33,4.9-1.34,8.42-5.12,12.74-7.59Zm1.27-4.44s-.04-.01-.05-.02c-3.07-1.16-6.34-2.1-9.65-2.73v2.49c0,.75,.22,1.34,.66,1.78,.44,.44,1.04,.66,1.78,.66h4.82c.79,0,1.4-.22,1.82-.66,.37-.39,.57-.9,.61-1.52Zm6.95,1.6c.01-.43,.02-.97,.02-1.62-.83-.09-1.65-.23-2.47-.41v1.61c.81,.18,1.63,.33,2.45,.42Zm5.71-.03c-.14-.07-.27-.14-.37-.2-.15-.09-.28-.22-.39-.38-.11-.16-.16-.35-.16-.58,0-.14,.04-.28,.09-.41-1.35,.12-2.69,.14-4.04,.04,0,.65,0,1.2,.02,1.63,1.61,.12,3.23,.09,4.84-.1Zm3.38-.61v-.19c0-.21-.03-.38-.1-.52-.07-.13-.18-.2-.33-.2-.17,0-.25-.04-.25-.12,0-.03,.02-.07,.07-.1s.1-.07,.18-.09c.17-.05,.39-.17,.65-.34,.03-.02,.07-.05,.13-.09s.1-.06,.13-.08c.08-.04,.14-.06,.18-.06,.1,0,.15,.05,.15,.14v1.09c-.01,.12-.02,.21-.02,.33,.6-.16,1.2-.35,1.8-.55-.07-.09-.15-.14-.28-.14-.17,0-.25-.04-.25-.12,0-.03,.02-.07,.07-.1s.1-.07,.18-.09c.17-.05,.39-.17,.65-.34,.03-.02,.07-.05,.13-.09s.1-.06,.13-.08c.08-.04,.14-.06,.18-.06,.1,0,.15,.05,.15,.14l-.02,.55c2.92-1.09,5.68-2.61,8.13-4.44,1.45-.91,3.22-2.64,4.55-3.72,.76-.71,1.58-1.55,2.4-2.44v-1.75c-.44,.49-.89,.97-1.32,1.41,.06,.13,.1,.27,.1,.43,0,.35-.14,.63-.43,.85-.29,.22-.64,.33-1.06,.33-.11,0-.21-.01-.3-.02-1.22,1.06-2.61,2.39-3.83,3.15-3.75,2.83-8.23,4.91-12.9,5.86v1.07s-.02,.09-.05,.12-.07,.05-.11,.05-.07-.02-.11-.05-.05-.07-.05-.12c0-.16-.06-.32-.17-.49-.11-.16-.26-.29-.45-.4-.49,.08-.98,.16-1.48,.22-.02,.06-.04,.12-.04,.18,0,.31,.26,.58,.77,.83,.07,.03,.14,.06,.2,.09s.12,.05,.18,.08c.2,.08,.36,.16,.51,.24,.64-.11,1.28-.24,1.92-.39Zm2.74,1.02v-1.21c.01-.15-.03-.25-.06-.36-.62,.21-1.25,.41-1.88,.58,0,.53-.01,.99-.01,1.31,0,.26,.1,.49,.29,.68s.42,.29,.68,.29c.34,0,.65-.19,.94-.58,.05-.09,.07-.16,.06-.22,0-.13-.01-.29-.01-.49Zm9.73,1.36h-.07s-.08,.02-.14,.02c-.17,0-.28-.08-.33-.23s-.08-.39-.08-.7v-1.07c.01-.48-.07-.89-.23-1.21-.16-.33-.37-.57-.62-.73-.25-.16-.5-.24-.76-.24-.28,0-.55,.09-.82,.28-.27,.19-.47,.38-.59,.59-.05,.07-.09,.07-.14-.01-.16-.28-.36-.49-.59-.63s-.48-.22-.73-.22c-.36,0-.71,.15-1.03,.45-.04,.03-.07,.04-.1,.03s-.04-.05-.04-.1c0-.07,.01-.15,.01-.24,0-.09-.06-.14-.17-.14-.05,0-.11,.03-.19,.08s-.13,.08-.17,.1c-.26,.2-.51,.33-.76,.39-.08,.02-.14,.04-.18,.08-.04,.04-.07,.07-.07,.1,0,.04,.02,.07,.07,.09,.04,.02,.1,.04,.18,.04,.15,0,.26,.07,.33,.2,.07,.13,.1,.3,.1,.52v.79c.02,.14,.02,.34,.02,.6,0,.36-.02,.63-.07,.81-.08,.3-.24,.43-.47,.38-.09-.02-.15,0-.2,.02-.05,.03-.07,.08-.07,.13,0,.05,.02,.09,.07,.12s.1,.05,.18,.05h1.93c.08,0,.14-.02,.18-.05s.07-.07,.07-.12-.02-.09-.05-.12-.08-.05-.15-.05h-.07s-.09,.02-.14,.02c-.12,0-.21-.03-.27-.09-.06-.06-.11-.16-.13-.3-.04-.32-.06-.72-.06-1.21,0-.34,0-.61,.01-.81,0-.15,.04-.32,.12-.52,.08-.2,.2-.37,.34-.5,.15-.14,.31-.21,.48-.21s.35,.07,.52,.21,.31,.34,.41,.6c.11,.26,.16,.56,.16,.89v.64c0,.46-.03,.8-.1,1.01-.07,.22-.22,.31-.44,.27-.09-.02-.15,0-.2,.02-.05,.03-.07,.08-.07,.13,0,.05,.02,.09,.07,.12s.1,.05,.18,.05h1.97c.08,0,.14-.02,.18-.05s.07-.07,.07-.12-.02-.09-.05-.12-.08-.05-.15-.05h-.07s-.08,.02-.14,.02c-.17,0-.28-.08-.33-.23-.06-.15-.08-.39-.08-.7v-1.07c.01-.42,.09-.8,.25-1.13,.16-.34,.4-.5,.72-.5,.17,0,.35,.07,.52,.21s.31,.34,.41,.6c.11,.26,.16,.56,.16,.89v.64c0,.46-.03,.8-.1,1.01-.07,.22-.22,.31-.44,.27-.09-.02-.15,0-.2,.02-.05,.03-.07,.08-.07,.13,0,.05,.02,.09,.07,.12s.1,.05,.18,.05h1.97c.08,0,.14-.02,.18-.05,.04-.03,.07-.07,.07-.12s-.02-.09-.05-.12-.09-.05-.15-.05Zm5.26-.36s-.08,0-.16,.03-.13,.03-.17,.03c-.13,0-.21-.14-.26-.41-.04-.28-.07-.64-.07-1.1,0-.4,.02-.9,.05-1.48l.02-.72c0-.09-.05-.14-.15-.14-.04,0-.1,.02-.18,.06-.03,.02-.08,.04-.13,.08s-.1,.07-.13,.09c-.26,.17-.48,.29-.65,.34-.08,.02-.14,.05-.18,.09s-.07,.07-.07,.1c0,.08,.08,.12,.25,.12,.15,0,.26,.07,.33,.2,.07,.13,.1,.3,.1,.52v1.21c-.01,.2,0,.36,0,.49,0,.06-.01,.14-.06,.22-.28,.39-.6,.58-.94,.58-.26,0-.49-.1-.68-.29s-.29-.42-.29-.68c0-.43,0-1.06,.02-1.88v-1.09c.01-.09-.04-.14-.14-.14-.04,0-.1,.02-.18,.06-.03,.02-.07,.04-.13,.08s-.1,.07-.13,.09c-.26,.17-.48,.29-.65,.34-.08,.02-.14,.05-.18,.09s-.07,.07-.07,.1c0,.08,.08,.12,.25,.12,.15,0,.26,.07,.33,.2,.07,.13,.1,.3,.1,.52v1.72c0,.25,.07,.46,.23,.63,.15,.18,.34,.31,.56,.41,.22,.09,.45,.14,.67,.14,.46,0,.86-.17,1.21-.52,.04-.04,.07-.06,.09-.06,.04,0,.06,.04,.07,.11,.06,.32,.2,.49,.43,.49,.06,0,.15-.04,.3-.13,.18-.11,.36-.19,.52-.24,.07-.02,.13-.05,.17-.09s.06-.08,.06-.12c0-.08-.05-.12-.15-.12Zm4.61,.99c0,.36-.12,.69-.37,.97-.25,.28-.57,.51-.98,.66s-.84,.24-1.31,.24c-.58,0-1.02-.14-1.32-.43-.3-.29-.43-.67-.39-1.14,.03-.3,.27-.58,.72-.85,.06-.03,.08-.06,.08-.1s-.03-.07-.08-.12c-.24-.18-.36-.38-.36-.59,0-.05,0-.08,.01-.11,0-.05,.07-.13,.17-.25s.22-.24,.33-.34c.05-.05,.07-.09,.07-.13,0-.05-.02-.09-.07-.12-.32-.28-.47-.62-.47-1.03,0-.47,.16-.82,.48-1.07,.32-.25,.71-.37,1.17-.37,.35,0,.67,.07,.97,.22,.05,.02,.09,.04,.14,.04,.03,0,.07-.01,.12-.04,.26-.16,.49-.24,.68-.24,.12,0,.21,.04,.28,.12s.11,.16,.11,.24-.04,.12-.11,.12h-.26c-.13,0-.26,0-.37,.02-.09,.02-.13,.06-.13,.13,0,.03,.01,.07,.04,.11,.12,.22,.18,.46,.18,.72,0,.45-.16,.79-.48,1.03-.32,.24-.71,.36-1.17,.36-.13,0-.26,0-.37-.01-.11,0-.2-.03-.27-.06-.03-.02-.07-.04-.12-.04-.04,0-.08,.02-.12,.05-.06,.04-.1,.1-.14,.18-.04,.08-.05,.13-.04,.17,.03,.14,.12,.23,.28,.28s.44,.07,.87,.07c.69,0,1.24,.09,1.63,.27,.39,.18,.59,.53,.59,1.05Zm-3.21-3.37c0,.33,.08,.6,.24,.8,.16,.2,.38,.3,.66,.3s.51-.1,.66-.3c.16-.2,.24-.47,.24-.8s-.08-.61-.24-.82c-.16-.21-.38-.31-.66-.31s-.51,.1-.66,.31c-.16,.21-.24,.48-.24,.82Zm2.46,3.71c0-.27-.07-.47-.2-.6-.13-.13-.31-.21-.53-.25-.23-.04-.54-.05-.94-.05h-.47c-.09,0-.16,.02-.22,.05-.18,.09-.32,.22-.41,.36s-.14,.31-.14,.49c0,.2,.06,.39,.18,.57,.12,.19,.29,.34,.51,.45,.22,.11,.48,.17,.78,.17,.42,0,.77-.1,1.04-.31,.28-.21,.41-.5,.41-.88Zm1.66-7.07c-.13,.13-.2,.29-.2,.48s.07,.34,.2,.47,.29,.2,.47,.2,.34-.07,.47-.2,.2-.29,.2-.47-.07-.35-.2-.48c-.13-.13-.29-.2-.47-.2s-.34,.07-.47,.2Zm1.58,6.09h-.07s-.09,.02-.14,.02c-.12,0-.21-.03-.27-.09-.06-.06-.11-.16-.13-.3-.04-.24-.06-.64-.06-1.2,0-.48,0-.87,.02-1.16l.05-.82,.02-.47c0-.09-.06-.14-.17-.14-.05,0-.11,.03-.19,.08s-.13,.08-.17,.1c-.26,.2-.51,.33-.76,.39-.08,.02-.14,.04-.18,.08-.04,.04-.07,.07-.07,.1,0,.04,.02,.07,.07,.09,.04,.02,.1,.04,.18,.04,.15,0,.26,.07,.33,.2,.07,.13,.1,.3,.1,.52v.79c.02,.14,.02,.34,.02,.6,0,.36-.02,.63-.07,.81-.08,.3-.24,.43-.47,.38-.09-.02-.15,0-.2,.02-.05,.03-.07,.08-.07,.13,0,.05,.02,.09,.07,.12s.1,.05,.18,.05h1.93c.08,0,.14-.02,.18-.05s.07-.07,.07-.12-.02-.09-.05-.12-.08-.05-.15-.05Z"/></g></svg>